<svg width="490" height="563" viewBox="0 0 490 563" fill="none" xmlns="http://www.w3.org/2000/svg">
<path d="M245 350.75C260.625 350.75 273.908 345.279 284.85 334.338C295.792 323.396 301.258 310.117 301.25 294.5C301.25 278.875 295.779 265.592 284.838 254.65C273.896 243.708 260.617 238.242 245 238.25C229.375 238.25 216.092 243.721 205.15 254.662C194.208 265.604 188.742 278.883 188.75 294.5C188.75 310.125 194.221 323.408 205.163 334.35C216.104 345.292 229.383 350.758 245 350.75ZM245 325.75C236.25 325.75 228.854 322.729 222.813 316.688C216.771 310.646 213.75 303.25 213.75 294.5C213.75 285.75 216.771 278.354 222.813 272.313C228.854 266.271 236.25 263.25 245 263.25C253.75 263.25 261.146 266.271 267.188 272.313C273.229 278.354 276.25 285.75 276.25 294.5C276.25 303.25 273.229 310.646 267.188 316.688C261.146 322.729 253.75 325.75 245 325.75ZM145 394.5C138.125 394.5 132.238 392.05 127.338 387.15C122.438 382.25 119.992 376.367 120 369.5V219.5C120 212.625 122.45 206.737 127.35 201.837C132.25 196.937 138.133 194.492 145 194.5H184.375L207.5 169.5H282.5L305.625 194.5H345C351.875 194.5 357.763 196.95 362.663 201.85C367.563 206.75 370.008 212.633 370 219.5V369.5C370 376.375 367.55 382.262 362.65 387.163C357.75 392.062 351.867 394.508 345 394.5H145ZM345 369.5V219.5H294.375L271.563 194.5H218.438L195.625 219.5H145V369.5H345Z" fill="black"/>
</svg>
